<?xml version="1.0" encoding="UTF-8"?>
<svg width="20px" height="11px" viewBox="0 0 20 11" version="1.1" xmlns="http://www.w3.org/2000/svg" xmlns:xlink="http://www.w3.org/1999/xlink">
    <title>icn-password hidden</title>
    <g id="Email-Reset" stroke="none" stroke-width="1" fill="none" fill-rule="evenodd">
        <g id="Desktop-Copy-3" transform="translate(-1215.000000, -541.000000)" fill="#004994">
            <g id="Group-5" transform="translate(699.000000, 182.000000)">
                <g id="Group-2" transform="translate(100.000000, 279.000000)">
                    <g id="icn-password-hidden" transform="translate(416.000000, 80.000000)">
                        <path d="M1.01043098,0.0968455758 C1.4830702,-0.134012117 2.0533287,0.0619883499 2.28413877,0.534656142 C2.6537587,1.29151509 3.10406453,1.98494531 3.62060862,2.60142297 C3.64708487,2.62913732 3.67156112,2.65808977 3.69404689,2.6879946 C4.44774392,3.56628241 5.33774604,4.28333173 6.32081505,4.79857106 C6.34678654,4.80885679 6.37251993,4.82038063 6.39796761,4.83314257 C6.42746292,4.84799975 6.45585347,4.86409502 6.48311067,4.8814284 C7.56621801,5.41914396 8.75716371,5.71419228 10.0000238,5.71419228 C11.2426934,5.71419228 12.4336487,5.41914396 13.5167941,4.8814284 C13.5441275,4.86409502 13.5725085,4.84799975 13.6020324,4.83314257 C13.6275563,4.82038063 13.6533658,4.80885679 13.6793659,4.79857106 C14.6613682,4.28380793 15.5505132,3.56780622 16.3037531,2.69085175 C16.3275627,2.65894691 16.353658,2.6280897 16.382039,2.59866106 C16.8976593,1.9829453 17.3471842,1.2905627 17.7163279,0.534941857 C17.9472808,0.0623693032 18.5175679,-0.133631163 18.9901405,0.097226529 C19.462713,0.32817946 19.6587135,0.898466532 19.4277605,1.37103909 C19.1150931,2.01113585 18.7503304,2.61761348 18.339377,3.18285292 L19.7209993,4.5645705 C20.0930002,4.93657138 20.0930002,5.5395252 19.7209993,5.91143085 C19.3490937,6.28343173 18.7461399,6.28343173 18.374139,5.91143085 L17.0936597,4.63095161 C16.5404203,5.17533386 15.9353713,5.65819215 15.287084,6.06857408 L16.0893716,7.66819694 C16.3251817,8.13838853 16.1352765,8.71067561 15.6650849,8.94648569 C15.1948933,9.18229578 14.6226062,8.99229533 14.3867962,8.52219897 L13.5901276,6.933719 C12.7558399,7.26391026 11.8721235,7.48276792 10.952407,7.5726729 L10.952407,9.52372516 C10.952407,10.0497264 10.5260251,10.4761084 10.0000238,10.4761084 C9.47402256,10.4761084 9.04764059,10.0497264 9.04764059,9.52372516 L9.04764059,7.5726729 C8.12792411,7.48276792 7.24416011,7.26391026 6.40989145,6.933719 L5.61322289,8.52219897 C5.37742233,8.99229533 4.8051162,9.18229578 4.33494365,8.94648569 C3.86478063,8.71067561 3.67479923,8.13838853 3.91059979,7.66819694 L4.71290646,6.06857408 C4.06462873,5.65809691 3.45964633,5.17523862 2.90641644,4.63085637 L1.62582292,5.91143085 C1.2538887,6.28343173 0.65087774,6.28343173 0.278943521,5.91143085 C-0.0929811738,5.5395252 -0.0929811738,4.93657138 0.278943521,4.5645705 L1.66088967,3.18266245 C1.24995536,2.61732777 0.885211631,2.01075489 0.572572792,1.37046766 C0.341753195,0.897895102 0.537791757,0.32760803 1.01043098,0.0968455758 Z" id="Path"></path>
                    </g>
                </g>
            </g>
        </g>
    </g>
</svg>